<svg id="layer" xmlns="http://www.w3.org/2000/svg" viewBox="0 0 24 24"><title>ico_magic</title><g style="opacity:0.6"><path d="M22.69,20.56l-4.24-4.24a1.5,1.5,0,1,0-2.12,2.12l4.24,4.24a1.5,1.5,0,1,0,2.12-2.12Z" style="fill:#788296;fill-rule:evenodd"/></g><path d="M4.3,3.66l5,1.7a.44.44,0,0,0,.41-.06l4.23-3.16a.44.44,0,0,1,.71.36l-.07,5.28a.44.44,0,0,0,.19.37l4.31,3A.44.44,0,0,1,19,12l-5,1.57a.44.44,0,0,0-.29.29l-1.57,5a.44.44,0,0,1-.79.12l-3-4.31a.44.44,0,0,0-.37-.19l-5.28.07a.44.44,0,0,1-.36-.71L5.37,9.63a.44.44,0,0,0,.06-.41l-1.7-5A.44.44,0,0,1,4.3,3.66Z" style="fill:none;stroke:#788296;stroke-miterlimit:10;stroke-width:2.5px;fill-rule:evenodd;opacity:0.6"/></svg>