<?xml version="1.0" encoding="utf-8"?>
<!-- Generator: Adobe Illustrator 21.0.0, SVG Export Plug-In . SVG Version: 6.00 Build 0)  -->
<svg version="1.1" id="layer" xmlns="http://www.w3.org/2000/svg" xmlns:xlink="http://www.w3.org/1999/xlink" x="0px" y="0px"
	 viewBox="0 0 14 14" style="enable-background:new 0 0 14 14;" xml:space="preserve">
<style type="text/css">
	.st0{opacity:0.6;fill:#788296;}
</style>
<title>kit_arrow_right</title>
<path class="st0" d="M10.7,6.3L4.8,0.8c-0.4-0.4-1.1-0.4-1.5,0C2.9,1.1,2.9,1.7,3.2,2.1c0,0,0,0,0.1,0.1L8.5,7l-5.2,4.8
	c-0.4,0.3-0.4,0.9-0.1,1.3c0,0,0,0,0.1,0.1c0.4,0.4,1.1,0.4,1.5,0l5.9-5.5C11.1,7.3,11.1,6.8,10.7,6.3C10.8,6.4,10.7,6.3,10.7,6.3z"
	/>
</svg>
