<?xml version="1.0" encoding="utf-8"?>
<!-- Generator: Adobe Illustrator 21.0.0, SVG Export Plug-In . SVG Version: 6.00 Build 0)  -->
<svg version="1.1" id="图层_1" xmlns="http://www.w3.org/2000/svg" xmlns:xlink="http://www.w3.org/1999/xlink" x="0px" y="0px"
	 viewBox="0 0 24 24" style="enable-background:new 0 0 24 24;" xml:space="preserve">
<style type="text/css">
	.st0{opacity:0.6;}
	.st1{fill-rule:evenodd;clip-rule:evenodd;fill:#788296;}
</style>
<title>zoom</title>
<g class="st0">
	<g>
		<g>
			<g>
				<path class="st1" d="M22.5,20.5l-5.1-5.1c-0.1-0.1-0.1-0.1-0.2-0.1C18.4,13.8,19,12,19,10c0-5-4-9-9-9s-9,4-9,9s4,9,9,9
					c2,0,3.8-0.6,5.3-1.7c0,0.1,0.1,0.1,0.1,0.2l5.1,5.1c0.6,0.6,1.5,0.6,2,0C23.1,22,23.1,21.1,22.5,20.5z M10,16c-3.3,0-6-2.7-6-6
					s2.7-6,6-6s6,2.7,6,6S13.3,16,10,16z"/>
			</g>
		</g>
	</g>
</g>
</svg>
