<?xml version="1.0" encoding="utf-8"?>
<!-- Generator: Adobe Illustrator 21.0.0, SVG Export Plug-In . SVG Version: 6.00 Build 0)  -->
<svg version="1.1" id="layer" xmlns="http://www.w3.org/2000/svg" xmlns:xlink="http://www.w3.org/1999/xlink" x="0px" y="0px"
	 viewBox="0 0 464 64" style="enable-background:new 0 0 464 64;" xml:space="preserve">
<style type="text/css">
	.st0{fill:#EB385B;}
	.st1{fill:#FF9800;}
	.st2{fill:#148EEF;}
	.st3{opacity:0.1;fill:#192A39;enable-background:new    ;}
	.st4{opacity:0.7;}
	.st5{fill:#192A39;}
</style>
<title>ued</title>
<path class="st0" d="M50,2v29.1l0,0c0,0.3,0,0.6,0,0.9c0,9.9-8.1,18-18,18s-18-8.1-18-18c0-0.3,0-0.6,0-0.9l0,0V2H2v32h0.1
	C3.2,50.5,17.5,63,34,61.9C49,60.9,60.9,49,61.9,34H62V2H50z"/>
<path class="st1" d="M70,2h60v12H70V2z"/>
<path class="st1" d="M70,50h60v12H70V50z"/>
<path class="st1" d="M70,26h60v12H70V26z"/>
<path class="st2" d="M170,2.1L170,2.1L138,2v12h32v0.1c9.9,1.1,17,10,15.9,19.9c-0.9,8.4-7.5,15-15.9,15.9V50h-32v12h32v-0.1
	c16.5-1.1,29-15.4,27.9-31.9C196.9,15,185,3.1,170,2.1z"/>
<rect x="207" y="2" class="st3" width="2" height="60"/>
<g class="st4">
	<path class="st5" d="M226.9,53.6c0,4-1.8,6-5.4,6c-3.5,0-5.2-1.9-5.2-5.8v-8.6h1.8v8.5c0,2.8,1.2,4.2,3.5,4.2s3.4-1.4,3.4-4.1v-8.6
		h1.8L226.9,53.6L226.9,53.6z"/>
	<path class="st5" d="M230.1,56.7c0.4,0.4,1,0.7,1.7,0.9s1.4,0.4,2.1,0.4c2,0,3-0.7,3-2.1c0-0.4-0.1-0.7-0.3-1.1
		c-0.2-0.3-0.5-0.6-0.9-0.8s-1.1-0.6-2.1-1.1c-1.4-0.7-2.3-1.4-2.8-2c-0.4-0.6-0.7-1.3-0.7-2.1c0-1.2,0.5-2.1,1.4-2.8s2.1-1,3.6-1
		c1.4,0,2.4,0.2,3.1,0.5v2c-0.8-0.6-1.9-0.9-3.2-0.9c-0.9,0-1.6,0.2-2.1,0.5c-0.5,0.4-0.8,0.9-0.8,1.5s0.2,1,0.6,1.4
		c0.4,0.4,1.2,0.8,2.4,1.5c1.4,0.7,2.4,1.3,2.9,2c0.6,0.7,0.8,1.4,0.8,2.2c0,1.2-0.4,2.2-1.3,2.8c-0.9,0.7-2.1,1-3.7,1
		c-0.6,0-1.2-0.1-2-0.2c-0.7-0.2-1.3-0.3-1.6-0.6L230.1,56.7L230.1,56.7z"/>
	<path class="st5" d="M249.4,59.4h-7.6V45.3h7.3v1.6h-5.4v4.5h5V53h-5v4.7h5.8v1.7H249.4z"/>
	<path class="st5" d="M262.8,59.4h-2.1l-2.3-3.9c-0.5-0.8-0.9-1.3-1.3-1.6s-0.9-0.4-1.4-0.4h-1.3v5.9h-1.8V45.3h4.3
		c1.4,0,2.4,0.3,3.2,1c0.8,0.7,1.2,1.6,1.2,2.8c0,2-1,3.2-3.1,3.8l0,0c0.4,0.2,0.7,0.4,1,0.7s0.6,0.8,1.1,1.6L262.8,59.4z
		 M254.3,46.9v5h2.1c0.8,0,1.5-0.2,2-0.7s0.8-1.1,0.8-1.9c0-0.7-0.2-1.3-0.7-1.7s-1.2-0.6-2.1-0.6L254.3,46.9L254.3,46.9z"/>
	<path class="st5" d="M278.5,59.4h-7.6V45.3h7.3v1.6h-5.4v4.5h5V53h-5v4.7h5.8L278.5,59.4L278.5,59.4z"/>
	<path class="st5" d="M291.4,59.4h-2.2l-3.1-5.3c-0.1-0.1-0.2-0.4-0.3-0.7l0,0c0,0-0.1,0.3-0.3,0.7l-3.2,5.3h-2.2l4.7-7.1l-4.3-7
		h2.2l2.8,4.9c0.2,0.3,0.3,0.6,0.5,1l0,0c0.1-0.3,0.3-0.7,0.5-1l2.9-4.8h2.1l-4.4,7L291.4,59.4z"/>
	<path class="st5" d="M295.7,54.1v5.3h-1.8V45.3h4c1.5,0,2.7,0.4,3.5,1.1c0.8,0.7,1.3,1.8,1.3,3.1c0,1.4-0.5,2.5-1.5,3.4
		s-2.2,1.3-3.7,1.2H295.7z M295.7,46.9v5.6h1.7c1.1,0,2-0.3,2.5-0.8c0.6-0.5,0.9-1.2,0.9-2.2c0-1.8-1.1-2.7-3.2-2.7h-1.9V46.9z"/>
	<path class="st5" d="M313.3,59.4h-7.6V45.3h7.3v1.6h-5.4v4.5h5V53h-5v4.7h5.8L313.3,59.4L313.3,59.4z"/>
	<path class="st5" d="M326.6,59.4h-2.1l-2.3-3.9c-0.5-0.8-0.9-1.3-1.3-1.6s-0.9-0.4-1.4-0.4h-1.3v5.9h-1.8V45.3h4.3
		c1.4,0,2.4,0.3,3.2,1c0.8,0.7,1.2,1.6,1.2,2.8c0,2-1,3.2-3.1,3.8l0,0c0.4,0.2,0.7,0.4,1,0.7s0.6,0.8,1.1,1.6L326.6,59.4z
		 M318.1,46.9v5h2.1c0.8,0,1.5-0.2,2-0.7s0.8-1.1,0.8-1.9c0-0.7-0.2-1.3-0.7-1.7s-1.2-0.6-2.1-0.6L318.1,46.9L318.1,46.9z"/>
	<path class="st5" d="M330.6,45.3v14.1h-1.8V45.3H330.6z"/>
	<path class="st5" d="M342.3,59.4h-7.6V45.3h7.3v1.6h-5.4v4.5h5V53h-5v4.7h5.8L342.3,59.4L342.3,59.4z"/>
	<path class="st5" d="M356.8,59.4h-2.2l-7.1-11c-0.2-0.3-0.4-0.6-0.5-0.9l0,0c0,0.3,0.1,1,0.1,2v9.9h-1.8V45.3h2.3l6.9,10.8
		c0.3,0.5,0.5,0.8,0.6,1l0,0C355,56.7,355,56,355,55v-9.7h1.8V59.4z"/>
	<path class="st5" d="M370.5,58.8c-1,0.5-2.3,0.8-3.9,0.8c-2,0-3.6-0.6-4.8-1.9c-1.2-1.3-1.8-3-1.8-5.1c0-2.3,0.7-4.1,2-5.5
		c1.4-1.4,3.1-2.1,5.2-2.1c1.3,0,2.5,0.2,3.3,0.6v1.9c-1-0.6-2.1-0.8-3.3-0.8c-1.6,0-2.8,0.5-3.8,1.6c-1,1-1.5,2.5-1.5,4.2
		s0.5,3,1.4,4s2.1,1.5,3.6,1.5c1.4,0,2.6-0.3,3.6-0.9L370.5,58.8L370.5,58.8z"/>
	<path class="st5" d="M381.2,59.4h-7.6V45.3h7.3v1.6h-5.4v4.5h5V53h-5v4.7h5.8L381.2,59.4L381.2,59.4z"/>
	<path class="st5" d="M390.1,59.4V45.3h4c2.1,0,3.9,0.6,5.3,1.9c1.4,1.2,2.1,2.9,2.1,5c0,2.2-0.7,3.9-2.1,5.2s-3.2,2-5.5,2H390.1z
		 M392,46.9v10.9h2c1.8,0,3.2-0.5,4.2-1.5s1.5-2.3,1.5-4.1s-0.5-3.1-1.5-4s-2.4-1.3-4.1-1.3C394.1,46.9,392,46.9,392,46.9z"/>
	<path class="st5" d="M412.3,59.4h-7.6V45.3h7.3v1.6h-5.4v4.5h5V53h-5v4.7h5.8L412.3,59.4L412.3,59.4z"/>
	<path class="st5" d="M414.7,56.7c0.4,0.4,1,0.7,1.7,0.9s1.4,0.4,2.1,0.4c2,0,3-0.7,3-2.1c0-0.4-0.1-0.7-0.3-1.1
		c-0.2-0.3-0.5-0.6-0.9-0.8s-1.1-0.6-2.1-1.1c-1.4-0.7-2.3-1.4-2.8-2c-0.4-0.6-0.7-1.3-0.7-2.1c0-1.2,0.5-2.1,1.4-2.8s2.1-1,3.6-1
		c1.4,0,2.4,0.2,3.1,0.5v2c-0.8-0.6-1.9-0.9-3.2-0.9c-0.9,0-1.6,0.2-2.1,0.5c-0.5,0.4-0.8,0.9-0.8,1.5s0.2,1,0.6,1.4
		s1.2,0.8,2.4,1.5c1.4,0.7,2.4,1.3,2.9,2c0.6,0.7,0.8,1.4,0.8,2.2c0,1.2-0.4,2.2-1.3,2.8c-0.9,0.7-2.1,1-3.7,1c-0.6,0-1.2-0.1-2-0.2
		c-0.7-0.2-1.3-0.3-1.6-0.6v-2L414.7,56.7L414.7,56.7z"/>
	<path class="st5" d="M428.3,45.3v14.1h-1.8V45.3H428.3z"/>
	<path class="st5" d="M443,58.4c-1.4,0.8-3,1.2-4.8,1.2c-2,0-3.7-0.6-4.9-1.9c-1.2-1.3-1.9-3-1.9-5.2s0.7-4,2.1-5.4s3.1-2.1,5.3-2.1
		c1.5,0,2.8,0.2,3.9,0.7v2c-1.1-0.7-2.5-1.1-4-1.1s-2.8,0.5-3.8,1.6c-1,1-1.5,2.4-1.5,4.1c0,1.8,0.5,3.1,1.4,4.1s2.2,1.5,3.7,1.5
		c1.1,0,2-0.2,2.7-0.6v-3.8h-3.1V52h4.9L443,58.4L443,58.4z"/>
	<path class="st5" d="M458,59.4h-2.2l-7.1-11c-0.2-0.3-0.4-0.6-0.5-0.9h-0.1c0,0.3,0.1,1,0.1,2v9.9h-1.8V45.3h2.3l6.9,10.8
		c0.3,0.5,0.5,0.8,0.6,1l0,0c-0.1-0.4-0.1-1.1-0.1-2.1v-9.7h1.8v14.1H458z"/>
</g>
<g>
	<g>
		<path class="st5" d="M244.1,30.3c0,1.2-0.3,2.2-0.8,2.9c-0.6,0.7-1.4,1.1-2.6,1.2c-1.2,0.1-2.7,0.2-4.6,0.1
			c-0.3-1.5-0.7-2.9-1.2-4.2c2,0.1,3.1,0.2,3.3,0.2c1.2,0,1.8-0.6,1.8-1.8V26h-6.1v8.2h-4.1V26h-6.3c-0.3,4.3-1.1,7.3-2.5,9
			c-1.3-0.9-2.5-1.7-3.8-2.5c1.6-2.1,2.3-6,2.3-11.5V7.3h24.6L244.1,30.3L244.1,30.3z M223.5,14.8h6.2v-3.6h-6.2V14.8z M223.5,22.2
			h6.2v-3.6h-6.2V22.2z M240,11.2h-6.1v3.6h6.1V11.2z M233.9,22.2h6.1v-3.6h-6.1V22.2z"/>
		<path class="st5" d="M250,10.3h9.8c-0.5-1.2-1-2.2-1.4-2.9l4.3-1.4c0.5,1,1.2,2.5,2.1,4.4h9.3v15.1H270V24h-16.2
			c-0.5,4.6-1.7,8.3-3.8,11c-1.1-1.4-2.1-2.6-3-3.6c2-2.8,3-6.4,3-11V10.3L250,10.3z M270.1,20v-5.7h-16V20H270.1z"/>
		<path class="st5" d="M281.5,6.1l3.8,1c-0.7,2.5-1.4,4.8-2.1,7V26c3.1-3.3,5.4-7.1,7-11.5h-5.3v-3.7h7.6V6.1h3.9v4.7h8.4v3.7h-6.3
			c1.5,4.2,4,7.8,7.5,11c-0.8,1.3-1.7,2.7-2.5,4.2c-0.8-0.8-1.5-1.7-2.2-2.7v3h-4.9v4.9h-3.9V30h-4.7v-3.1c-0.8,1.1-1.6,2.2-2.5,3.2
			c-0.6-0.9-1.3-2-2.1-3.3v8.1h-3.5V22c-0.6,1.1-1.3,2.2-1.9,3.1c-0.2-1.8-0.5-3.6-0.9-5.5C278.3,16.7,279.8,12.2,281.5,6.1z
			 M288.1,26.3h4.4V16.1C291.5,19.9,290,23.2,288.1,26.3z M296.3,16.3v10h4.4C298.9,23.6,297.4,20.2,296.3,16.3z"/>
		<path class="st5" d="M306.7,25.3c2.1-0.2,4.4-0.4,6.8-0.8c0,1.2,0,2.4,0.1,3.5c-2.2,0.3-4.3,0.6-6.4,0.9L306.7,25.3z M311.6,12
			l-0.8,7.3h2.1l0.7-8.2h-6.4V7.6h10.2l-1,11.7h1.7c-0.2,5.6-0.4,9.2-0.5,10.7c-0.1,2.4-1,3.7-2.7,4.1c-0.8,0.1-2.7,0.2-5.6,0.2
			c-0.2-1.4-0.4-2.7-0.6-4c1.2,0.1,2.5,0.2,3.9,0.3c1,0,1.5-0.5,1.6-1.4c0.1-1.3,0.2-3.4,0.3-6.4h-7.4l1-10.8
			C308.1,12,311.6,12,311.6,12z M332.3,18.6h-11.2V17c-0.7,0.6-1.4,1.2-2.1,1.8c-0.6-1.2-1.2-2.4-1.9-3.7c3.2-2.3,5.7-5.3,7.6-8.8
			h4.5l-0.6,1.1c2.3,3.3,4.9,5.8,7.7,7.4c-0.7,1.1-1.4,2.3-2,3.6c-0.7-0.4-1.3-0.9-1.9-1.4v1.6H332.3z M318.3,30.4h10
			c1.2-3.6,2-7,2.6-10.3l3.6,0.9c-0.8,3-1.7,6.1-2.8,9.3h3.6v3.5h-17.1L318.3,30.4L318.3,30.4z M321.6,20.8c1,2.4,1.9,5,2.8,7.8
			l-3.2,1.1c-0.6-2.2-1.5-4.9-2.6-7.9L321.6,20.8z M326.5,10.6c-0.9,1.4-2.1,2.9-3.5,4.5h7.4C328.9,13.6,327.6,12.1,326.5,10.6z
			 M327,19.6c0.7,2.6,1.3,5.3,1.8,7.9l-3.3,0.8c-0.4-2.4-0.9-5.1-1.6-7.9L327,19.6z"/>
		<path class="st5" d="M346.3,23.7c0.2,1.5,0.4,3,0.8,4.5c-2.7,2.4-4.7,4.4-6,5.8l-2.1-3.1c0.4-0.5,0.6-1.3,0.6-2.3v-8.8h-2.8v-4
			h6.8v10.6C344.1,25.9,345,24.9,346.3,23.7z M341.5,5.9c1.6,1.9,3,3.7,4.2,5.2l-3.6,2.5c-1.4-2.3-2.7-4.2-3.8-5.5L341.5,5.9z
			 M365.7,13c-0.4,1.6-0.6,2.8-0.7,3.6c-1.8,0-3.1,0.1-4,0.1c-2.2,0-3.3-1-3.3-3.1v-3h-5c0,2.8-1.3,5.3-3.9,7.5h14.8v3.5
			c-1.4,2.7-3.1,5-5.1,7c2.2,1,4.6,1.8,7.3,2.2c-0.8,1.2-1.5,2.6-2.3,4.1c-3.2-0.8-6-1.9-8.5-3.5c-2.5,1.7-5.4,2.9-8.7,3.7
			c-0.5-1.2-1.3-2.5-2.3-3.8c2.8-0.6,5.3-1.5,7.4-2.5c-1.7-1.5-3.1-3.3-4.4-5.3l2.6-1.7h-3.1v-3.6h2c-0.8-0.9-1.8-1.9-3-3.1
			c2.1-1.5,3.2-3.5,3.2-6V7h13v4.7c0,0.8,0.2,1.2,0.7,1.3S364,13.1,365.7,13z M355,26.4c1.7-1.3,3-2.9,4-4.7h-8.4
			C351.8,23.5,353.3,25.1,355,26.4z"/>
		<path class="st5" d="M377.9,24.7c0.2,1.8,0.3,3.3,0.5,4.3c-3.8,2.4-6.1,4.2-7.1,5.3l-2.2-2.9c0.5-0.6,0.7-1.4,0.7-2.5v-9.4h-3
			v-3.8h6.9v11.6C374.5,26.9,375.9,26,377.9,24.7z M371.9,6c1.5,2.1,2.8,3.9,3.9,5.4l-3.8,2.3c-1-1.7-2.1-3.6-3.5-5.7L371.9,6z
			 M376.5,14.9h7.4V6h4.4v8.9h7.5v3.9h-7.5v16.1h-4.4V18.8h-7.4V14.9z"/>
		<path class="st5" d="M398,34.7V7.2h26.7v27.5h-4.1v-1H402v1.1L398,34.7L398,34.7z M420.6,10.7H402v19.4h18.5V10.7H420.6z
			 M413.4,11.4h3.8V14h2.1v3.4h-2.1v6.3c0,1.8-0.4,3.1-1.2,4s-2,1.4-3.5,1.5s-2.8,0.1-4,0.1c-0.2-1.4-0.5-2.6-0.8-3.7
			c0.9,0.1,2,0.1,3.2,0.1c1.6,0,2.4-0.8,2.4-2.4v-4.8c-2.1,3-4.9,5.9-8.6,8.7c-0.9-1.3-1.7-2.3-2.5-3.2c3.5-2,6.3-4.3,8.5-6.7h-7.5
			V14h10.1v-2.6H413.4z"/>
		<path class="st5" d="M433,27.8c-0.3-0.9-0.7-2.1-1.2-3.5V35H428V7.2h11.2V10l-2.5,7.2c1.8,1.9,2.6,3.9,2.6,6
			c0,1.7-0.6,2.8-1.8,3.5C436.3,27.4,434.8,27.8,433,27.8z M432.7,17.7c0.7-2.2,1.5-4.5,2.3-7.1h-3.2v13.2c0.8,0.1,1.5,0.1,2.1,0.1
			c1,0,1.5-0.4,1.5-1.2C435.4,21.2,434.5,19.6,432.7,17.7z M443.8,6.2h4.3c0,3-0.1,5.5-0.2,7.6c0.7,4.7,1.7,8.2,2.9,10.6
			s2.9,4.3,5.2,5.8c-0.8,1-1.8,2.5-2.9,4.3c-3.7-3.9-6-8.2-6.9-12.7c-0.8,4.4-3.6,8.8-8.1,12.9c-0.7-1.3-1.7-2.6-2.7-3.9
			c3.7-2.7,6-5.6,7-8.6s1.5-7.7,1.5-14.1L443.8,6.2L443.8,6.2z"/>
	</g>
</g>
</svg>
